<?xml version="1.0" encoding="UTF-8" standalone="no"?>
<!-- Created with Inkscape (http://www.inkscape.org/) -->

<svg
   xmlns:dc="http://purl.org/dc/elements/1.1/"
   xmlns:cc="http://creativecommons.org/ns#"
   xmlns:rdf="http://www.w3.org/1999/02/22-rdf-syntax-ns#"
   xmlns:svg="http://www.w3.org/2000/svg"
   xmlns="http://www.w3.org/2000/svg"
   xmlns:sodipodi="http://sodipodi.sourceforge.net/DTD/sodipodi-0.dtd"
   xmlns:inkscape="http://www.inkscape.org/namespaces/inkscape"
   width="50mm"
   height="30mm"
   viewBox="0 0 50 30"
   version="1.1"
   id="svg8"
   inkscape:version="0.92.3 (2405546, 2018-03-11)"
   sodipodi:docname="dane.svg">
  <defs
     id="defs2" />
  <sodipodi:namedview
     id="base"
     pagecolor="#ffffff"
     bordercolor="#666666"
     borderopacity="1.0"
     inkscape:pageopacity="0.0"
     inkscape:pageshadow="2"
     inkscape:zoom="0.35"
     inkscape:cx="366.59493"
     inkscape:cy="428.75685"
     inkscape:document-units="mm"
     inkscape:current-layer="layer1"
     showgrid="false"
     inkscape:window-width="2560"
     inkscape:window-height="1017"
     inkscape:window-x="-8"
     inkscape:window-y="-8"
     inkscape:window-maximized="1" />
  <metadata
     id="metadata5">
    <rdf:RDF>
      <cc:Work
         rdf:about="">
        <dc:format>image/svg+xml</dc:format>
        <dc:type
           rdf:resource="http://purl.org/dc/dcmitype/StillImage" />
        <dc:title></dc:title>
      </cc:Work>
    </rdf:RDF>
  </metadata>
  <g
     inkscape:label="Capa 1"
     inkscape:groupmode="layer"
     id="layer1"
     transform="translate(0,-267)">
    <g
       id="g1120"
       transform="matrix(0.26458333,0,0,0.26458333,4.5357178,274.4335)">
      <g
         id="g1118">
        <g
           id="g1116">
          <g
             id="g1114">
            <g
               id="g1112">
              <g
                 id="g1068">
                <g
                   id="g1066">
                  <g
                     id="g1062">
                    <g
                       id="g1056">
                      <g
                         id="g1054">
                        <path
                           id="path1052"
                           d="M 125.58,45.4 96.2,18.84 V 45.4 H 87.65 V 0.76 h 0.92 l 29.37,26.99 V 0.76 h 8.55 V 45.4 Z"
                           class="st5"
                           inkscape:connector-curvature="0"
                           style="fill:#ffffff" />
                      </g>
                    </g>
                    <polygon
                       id="polygon1058"
                       points="139.58,19.44 139.58,8.27 157.85,8.27 157.85,0.7 156.44,0.7 138.16,0.7 131.03,0.7 131.03,45.4 138.16,45.4 159.6,45.4 159.6,37.71 139.58,37.71 139.58,27.2 156.1,27.2 156.1,19.44 "
                       class="st5"
                       style="fill:#ffffff" />
                    <path
                       id="path1060"
                       d="M 39,13.55 C 37.88,10.72 36.23,8.31 34.03,6.31 29.93,2.57 24.69,0.7 18.3,0.7 H 0.68 v 7.69 h 8.55 9.1 c 1.55,0 3.14,0.18 4.76,0.55 1.63,0.37 3.11,1.08 4.46,2.14 1.35,1.06 2.44,2.56 3.3,4.49 0.85,1.93 1.28,4.45 1.28,7.54 0,3.09 -0.43,5.6 -1.28,7.51 -0.86,1.91 -1.95,3.41 -3.27,4.49 -1.32,1.08 -2.8,1.8 -4.43,2.17 -1.63,0.37 -3.24,0.55 -4.83,0.55 H 9.22 V 37.81 20.67 H 0.68 v 0 17.14 0 7.59 H 18.3 c 3.17,0 6.09,-0.47 8.75,-1.4 2.66,-0.94 4.99,-2.32 6.98,-4.15 2.2,-1.99 3.85,-4.41 4.97,-7.24 1.12,-2.83 1.68,-6.02 1.68,-9.56 0,-3.5 -0.56,-6.67 -1.68,-9.5 z"
                       class="st5"
                       inkscape:connector-curvature="0"
                       style="fill:#ffffff" />
                  </g>
                  <path
                     id="path1064"
                     d="M 38.33,45.37 61.17,0.73 h 0.85 L 84.86,45.37 H 75.58 L 68.87,31.95 54.03,31.88 47.61,45.37 Z M 57.92,25.14 65.23,25.12 61.6,17.4 Z"
                     class="st5"
                     inkscape:connector-curvature="0"
                     style="fill:#ffffff" />
                </g>
              </g>
              <g
                 id="g1110">
                <path
                   id="path1070"
                   d="M 1.52,60.94 H 0.4 v -8.96 h 1.12 z"
                   class="st5"
                   inkscape:connector-curvature="0"
                   style="fill:#ffffff" />
                <path
                   id="path1072"
                   d="m 3.27,51.55 6.72,7.05 v -6.62 h 1.12 v 9.33 L 4.39,54.26 v 6.68 H 3.27 Z"
                   class="st5"
                   inkscape:connector-curvature="0"
                   style="fill:#ffffff" />
                <path
                   id="path1074"
                   d="m 13.99,53 v 2.52 h 3.11 v 1.02 h -3.11 v 4.4 h -1.12 v -8.96 h 4.34 V 53 Z"
                   class="st5"
                   inkscape:connector-curvature="0"
                   style="fill:#ffffff" />
                <path
                   id="path1076"
                   d="m 27.45,56.46 c 0,2.66 -2.1,4.67 -4.69,4.67 -2.59,0 -4.69,-2.01 -4.69,-4.67 0,-2.57 2.13,-4.67 4.69,-4.67 2.57,0 4.69,2.1 4.69,4.67 z m -1.11,0 c 0,-1.97 -1.47,-3.62 -3.58,-3.62 -2.1,0 -3.58,1.65 -3.58,3.62 0,2.04 1.64,3.62 3.58,3.62 1.94,0 3.58,-1.58 3.58,-3.62 z"
                   class="st5"
                   inkscape:connector-curvature="0"
                   style="fill:#ffffff" />
                <path
                   id="path1078"
                   d="M 34.29,60.94 H 32.94 L 30.3,57.15 h -0.46 v 3.79 h -1.12 v -8.96 h 1.35 c 0.8,0 1.65,0.01 2.36,0.42 0.75,0.44 1.18,1.28 1.18,2.14 0,1.28 -0.86,2.35 -2.15,2.51 z m -4.46,-4.72 h 0.36 c 1.14,0 2.38,-0.21 2.38,-1.64 0,-1.4 -1.33,-1.6 -2.44,-1.6 h -0.3 z"
                   class="st5"
                   inkscape:connector-curvature="0"
                   style="fill:#ffffff" />
                <path
                   id="path1080"
                   d="m 36.87,55.02 h -0.02 l -1.05,5.92 h -1.15 l 1.83,-9.34 3.08,7.06 3.08,-7.06 1.83,9.34 h -1.15 l -1.05,-5.92 h -0.02 l -2.68,6.11 z"
                   class="st5"
                   inkscape:connector-curvature="0"
                   style="fill:#ffffff" />
                <path
                   id="path1082"
                   d="m 46.91,58.69 -1.02,2.25 h -1.2 l 4.28,-9.34 4.28,9.34 h -1.2 l -1.02,-2.25 z m 2.06,-4.64 -1.59,3.62 h 3.18 z"
                   class="st5"
                   inkscape:connector-curvature="0"
                   style="fill:#ffffff" />
                <path
                   id="path1084"
                   d="m 60.7,53.69 c -0.64,-0.57 -1.52,-0.88 -2.36,-0.88 -2.01,0 -3.54,1.67 -3.54,3.66 0,1.96 1.52,3.64 3.52,3.64 0.88,0 1.72,-0.33 2.39,-0.93 v 1.32 c -0.69,0.4 -1.57,0.63 -2.35,0.63 -2.55,0 -4.67,-2.03 -4.67,-4.62 0,-2.65 2.13,-4.72 4.76,-4.72 0.78,0 1.58,0.19 2.26,0.61 v 1.29 z"
                   class="st5"
                   inkscape:connector-curvature="0"
                   style="fill:#ffffff" />
                <path
                   id="path1086"
                   d="m 63.29,60.94 h -1.12 v -8.96 h 1.12 z"
                   class="st5"
                   inkscape:connector-curvature="0"
                   style="fill:#ffffff" />
                <path
                   id="path1088"
                   d="m 73.9,56.46 c 0,2.66 -2.1,4.67 -4.69,4.67 -2.59,0 -4.69,-2.01 -4.69,-4.67 0,-2.57 2.13,-4.67 4.69,-4.67 2.57,0 4.69,2.1 4.69,4.67 z m -1.11,0 c 0,-1.97 -1.47,-3.62 -3.58,-3.62 -2.1,0 -3.58,1.65 -3.58,3.62 0,2.04 1.64,3.62 3.58,3.62 1.94,0 3.58,-1.58 3.58,-3.62 z m -1.99,-6.82 -1.95,1.77 -0.52,-0.32 1.49,-1.97 z"
                   class="st5"
                   inkscape:connector-curvature="0"
                   style="fill:#ffffff" />
                <path
                   id="path1090"
                   d="m 75.06,51.55 6.72,7.05 v -6.62 h 1.12 v 9.33 l -6.72,-7.05 v 6.68 h -1.12 z"
                   class="st5"
                   inkscape:connector-curvature="0"
                   style="fill:#ffffff" />
                <path
                   id="path1092"
                   d="m 89.41,60.94 h -1.12 v -8.96 h 1.28 c 2.76,0 3.61,0.95 3.61,2.59 0,1.89 -1.44,2.61 -3.14,2.61 H 89.4 v 3.76 z m 0,-4.76 h 0.36 c 1.14,0 2.38,-0.21 2.38,-1.64 0,-1.4 -1.33,-1.57 -2.44,-1.57 h -0.3 z"
                   class="st5"
                   inkscape:connector-curvature="0"
                   style="fill:#ffffff" />
                <path
                   id="path1094"
                   d="m 94.67,58.69 -1.02,2.25 h -1.2 l 4.28,-9.34 4.28,9.34 h -1.2 l -1.02,-2.25 z m 2.06,-4.64 -1.59,3.62 h 3.18 z"
                   class="st5"
                   inkscape:connector-curvature="0"
                   style="fill:#ffffff" />
                <path
                   id="path1096"
                   d="m 107.51,60.94 h -1.35 l -2.64,-3.79 h -0.46 v 3.79 h -1.12 v -8.96 h 1.35 c 0.8,0 1.65,0.01 2.36,0.42 0.75,0.44 1.18,1.28 1.18,2.14 0,1.28 -0.86,2.35 -2.15,2.51 z m -4.46,-4.72 h 0.36 c 1.14,0 2.38,-0.21 2.38,-1.64 0,-1.4 -1.33,-1.6 -2.44,-1.6 h -0.3 z"
                   class="st5"
                   inkscape:connector-curvature="0"
                   style="fill:#ffffff" />
                <path
                   id="path1098"
                   d="m 109.84,58.69 -1.02,2.25 h -1.2 l 4.28,-9.34 4.28,9.34 h -1.2 l -1.02,-2.25 z m 2.06,-4.64 -1.59,3.62 h 3.18 z"
                   class="st5"
                   inkscape:connector-curvature="0"
                   style="fill:#ffffff" />
                <path
                   id="path1100"
                   d="m 123.13,60.94 h -1.12 V 53 h -2.13 v -1.02 h 5.37 V 53 h -2.13 v 7.94 z"
                   class="st5"
                   inkscape:connector-curvature="0"
                   style="fill:#ffffff" />
                <path
                   id="path1102"
                   d="m 135.07,56.46 c 0,2.66 -2.1,4.67 -4.69,4.67 -2.59,0 -4.69,-2.01 -4.69,-4.67 0,-2.57 2.13,-4.67 4.69,-4.67 2.57,0 4.69,2.1 4.69,4.67 z m -1.11,0 c 0,-1.97 -1.47,-3.62 -3.58,-3.62 -2.1,0 -3.58,1.65 -3.58,3.62 0,2.04 1.64,3.62 3.58,3.62 1.94,0 3.58,-1.58 3.58,-3.62 z"
                   class="st5"
                   inkscape:connector-curvature="0"
                   style="fill:#ffffff" />
                <path
                   id="path1104"
                   d="m 136.24,51.98 h 1.85 c 2.74,0 5.03,1.45 5.03,4.43 0,3.05 -2.23,4.53 -5.06,4.53 h -1.82 z m 1.12,7.93 h 0.39 c 2.28,0 4.25,-0.86 4.25,-3.46 0,-2.61 -1.97,-3.46 -4.25,-3.46 h -0.39 z"
                   class="st5"
                   inkscape:connector-curvature="0"
                   style="fill:#ffffff" />
                <path
                   id="path1106"
                   d="m 153.18,56.46 c 0,2.66 -2.1,4.67 -4.69,4.67 -2.59,0 -4.69,-2.01 -4.69,-4.67 0,-2.57 2.13,-4.67 4.69,-4.67 2.56,0 4.69,2.1 4.69,4.67 z m -1.12,0 c 0,-1.97 -1.47,-3.62 -3.58,-3.62 -2.1,0 -3.58,1.65 -3.58,3.62 0,2.04 1.64,3.62 3.58,3.62 1.94,0 3.58,-1.58 3.58,-3.62 z"
                   class="st5"
                   inkscape:connector-curvature="0"
                   style="fill:#ffffff" />
                <path
                   id="path1108"
                   d="m 158.42,53.68 c -0.33,-0.56 -0.76,-0.84 -1.44,-0.84 -0.71,0 -1.5,0.49 -1.5,1.27 0,0.7 0.69,1.07 1.25,1.28 l 0.64,0.25 c 1.27,0.5 2.22,1.2 2.22,2.7 0,1.63 -1.26,2.79 -2.86,2.79 -1.45,0 -2.58,-1.07 -2.77,-2.51 l 1.13,-0.24 c -0.01,0.99 0.77,1.7 1.73,1.7 0.96,0 1.65,-0.81 1.65,-1.75 0,-0.96 -0.77,-1.38 -1.54,-1.7 l -0.62,-0.26 c -1.02,-0.44 -1.95,-1.02 -1.95,-2.27 0,-1.45 1.28,-2.32 2.64,-2.32 1,0 1.82,0.49 2.3,1.36 z"
                   class="st5"
                   inkscape:connector-curvature="0"
                   style="fill:#ffffff" />
              </g>
            </g>
          </g>
        </g>
      </g>
    </g>
  </g>
</svg>
